<?xml version="1.0" encoding="UTF-8"?>
<svg width="77px" height="24px" viewBox="0 0 77 24" version="1.1" xmlns="http://www.w3.org/2000/svg" xmlns:xlink="http://www.w3.org/1999/xlink">
    <title>Logo</title>
    <defs>
        <polygon id="path-1" points="0 0.0946285714 5.80656 0.0946285714 5.80656 8.87477143 0 8.87477143"></polygon>
    </defs>
    <g id="Services" stroke="none" strokeWidth="1" fill="none" fill-rule="evenodd">
        <g id="Desktop-HD" transform="translate(-682.000000, -12.000000)">
            <g id="Logo" transform="translate(682.000000, 12.000000)">
                <path d="M4.36343666,1.75288785 C4.14498413,1.53443486 3.80937271,1.42520836 3.3578228,1.42520836 L2.30949475,1.42520836 L2.30949475,7.70375786 L3.28581889,7.70375786 C3.71418111,7.70375786 4.05589456,7.63269484 4.30973883,7.49188478 C4.56358311,7.35107472 4.69050525,7.040503 4.69050525,6.5614856 L4.69050525,2.7872496 C4.69050525,2.31612809 4.58188919,1.97134084 4.36343666,1.75288785 L4.36343666,1.75288785 Z M1,0 L3.23822309,0 C4.13522089,0 4.8198682,0.265828337 5.292165,0.796169031 C5.7644618,1.32782571 6,2.03319199 6,2.91489984 L6,6.43251937 C6,8.14461179 5.15914083,9 3.4762021,9 L1,9 L1,0 Z" id="Fill-1" fill="#DDB407"></path>
                <path d="M13.2864228,5.1424806 L14.6044637,5.1424806 L13.9150651,2.36564651 L13.2864228,5.1424806 Z M14.9194048,6.64753258 L12.9714817,6.64753258 L12.50031,9 L11,9 L12.983881,0 L14.8586485,0 L17,9 L15.4153751,9 L14.9194048,6.64753258 Z" id="Fill-3" fill="#DDB407"></path>
                <path d="M24.3634367,1.75288785 C24.1449841,1.53443486 23.8093727,1.42520836 23.3578228,1.42520836 L22.3094948,1.42520836 L22.3094948,7.70375786 L23.2858189,7.70375786 C23.7141811,7.70375786 24.0558946,7.63269484 24.3097388,7.49188478 C24.5635831,7.35107472 24.6905052,7.040503 24.6905052,6.5614856 L24.6905052,2.7872496 C24.6905052,2.31612809 24.5818892,1.97134084 24.3634367,1.75288785 L24.3634367,1.75288785 Z M21,0 L23.2382231,0 C24.1352209,0 24.8198682,0.265828337 25.292165,0.796169031 C25.7644618,1.32782571 26,2.03319199 26,2.91489984 L26,6.43251937 C26,8.14461179 25.1591408,9 23.4762021,9 L21,9 L21,0 Z" id="Fill-5" fill="#DDB407"></path>
                <path d="M33.2864228,5.1424806 L34.6044637,5.1424806 L33.9150651,2.36564651 L33.2864228,5.1424806 Z M34.9194048,6.64753258 L32.9714817,6.64753258 L32.50031,9 L31,9 L32.983881,0 L34.8586485,0 L37,9 L35.4153751,9 L34.9194048,6.64753258 Z" id="Fill-7" fill="#DDB407"></path>
                <g id="Group-11" transform="translate(0.000000, 15.000000)">
                    <mask id="mask-2" fill="white">
                        <use xlink:href="#path-1"></use>
                    </mask>
                    <g id="Clip-10"></g>
                    <path d="M2.21256,5.11148571 L3.48816,5.11148571 L2.82096,2.40248571 L2.21256,5.11148571 Z M3.79296,6.57977143 L1.90776,6.57977143 L1.45176,8.87477143 L-0.00024,8.87477143 L1.91976,0.0946285714 L3.73416,0.0946285714 L5.80656,8.87477143 L4.27296,8.87477143 L3.79296,6.57977143 Z" id="Fill-9" fill="#DDB407" mask="url(#mask-2)"></path>
                </g>
                <path d="M14.2587182,19.8143213 C14.4389727,19.5955484 14.5497172,19.3451457 14.5921301,19.0631132 C14.6333648,18.7797628 14.6545712,18.4450139 14.6545712,18.0588666 C14.6545712,17.6055059 14.5980207,17.2602138 14.4825636,17.0243081 C14.3682846,16.7897203 14.2068803,16.6302533 13.9995287,16.548543 C13.7933553,16.4668326 13.5247408,16.4272954 13.1960415,16.4272954 L12.2641376,16.4272954 L12.2641376,20.1424806 L13.4245994,20.1424806 C13.8004241,20.1424806 14.0784637,20.0330942 14.2587182,19.8143213 L14.2587182,19.8143213 Z M13.9418002,21.4920193 L12.2641376,21.4920193 L12.2641376,24 L11,24 L11,15 L13.7238454,15 C14.230443,15 14.6510368,15.1396983 14.9891612,15.4177771 C15.3261074,15.6958559 15.57705,16.0661883 15.7408106,16.5300923 C15.9057493,16.9926783 15.9882187,17.502709 15.9882187,18.0588666 C15.9882187,18.4792795 15.9729029,18.8443403 15.9422714,19.152731 C15.91164,19.4611217 15.832705,19.7826915 15.7066447,20.1161224 C15.5805844,20.4508713 15.3791235,20.7513545 15.1034402,21.0175721 L16,24 L14.7122997,24 L13.9418002,21.4920193 Z" id="Fill-12" fill="#DDB407"></path>
                <polygon id="Fill-14" fill="#DDB407" points="21.791178 16.4272954 20 16.4272954 20 15 25 15 25 16.4272954 23.1591025 16.4272954 23.1591025 24 21.791178 24"></polygon>
                <path d="M29.8465,22.8465 C29.7485,22.9445 29.6325,22.9925 29.4955,22.9925 C29.3655,22.9925 29.2515,22.9445 29.1545,22.8465 C29.0565,22.7485 29.0075,22.6355 29.0075,22.5055 C29.0075,22.3685 29.0565,22.2515 29.1545,22.1545 C29.2515,22.0565 29.3655,22.0075 29.4955,22.0075 C29.6325,22.0075 29.7485,22.0565 29.8465,22.1545 C29.9445,22.2515 29.9925,22.3685 29.9925,22.5055 C29.9925,22.6355 29.9445,22.7485 29.8465,22.8465" id="Fill-16" fill="#DDB407"></path>
                <path d="M37.1601363,24 C36.5173197,24 35.9971607,23.8090831 35.5985236,23.4246868 C35.1987507,23.0415718 35,22.4291002 35,21.5872722 L35,17.5741743 C35,16.9412016 35.0783646,16.4619875 35.2373651,16.1365319 C35.3963657,15.8123576 35.6382737,15.5368736 35.9630892,15.3126424 C36.2879046,15.103787 36.6865417,15 37.1601363,15 C37.7359455,15 38.2572402,15.1371014 38.721749,15.4113041 L38.3787621,16.6618736 C38.0391823,16.5209282 37.6655309,16.4491743 37.2600795,16.4491743 C36.9488927,16.4491743 36.6978989,16.5452733 36.5059625,16.7374715 C36.3140261,16.9283884 36.2186258,17.1705581 36.2186258,17.461418 L36.2186258,21.5629271 C36.2186258,22.2625285 36.5650199,22.6123292 37.2600795,22.6123292 C37.4815446,22.6123292 37.7030097,22.5854214 37.9244747,22.5316059 C38.1459398,22.4777904 38.4412266,22.3957859 38.8114708,22.2881549 L39,23.5874146 C38.3424191,23.8628986 37.7279955,24 37.1601363,24" id="Fill-18" fill="#DDB407"></path>
                <path d="M46.2587182,19.8143213 C46.4389727,19.5955484 46.5497172,19.3451457 46.5921301,19.0631132 C46.6333648,18.7797628 46.6545712,18.4450139 46.6545712,18.0588666 C46.6545712,17.6055059 46.5980207,17.2602138 46.4825636,17.0243081 C46.3682846,16.7897203 46.2068803,16.6302533 45.9995287,16.548543 C45.7933553,16.4668326 45.5247408,16.4272954 45.1960415,16.4272954 L44.2641376,16.4272954 L44.2641376,20.1424806 L45.4245994,20.1424806 C45.8004241,20.1424806 46.0784637,20.0330942 46.2587182,19.8143213 L46.2587182,19.8143213 Z M45.9418002,21.4920193 L44.2641376,21.4920193 L44.2641376,24 L43,24 L43,15 L45.7238454,15 C46.230443,15 46.6510368,15.1396983 46.9891612,15.4177771 C47.3261074,15.6958559 47.57705,16.0661883 47.7408106,16.5300923 C47.9057493,16.9926783 47.9882187,17.502709 47.9882187,18.0588666 C47.9882187,18.4792795 47.9729029,18.8443403 47.9422714,19.152731 C47.91164,19.4611217 47.832705,19.7826915 47.7066447,20.1161224 C47.5805844,20.4508713 47.3791235,20.7513545 47.1034402,21.0175721 L48,24 L46.7122997,24 L45.9418002,21.4920193 Z" id="Fill-20" fill="#DDB407"></path>
                <path d="M55.2864228,20.1424806 L56.6044637,20.1424806 L55.9150651,17.3656465 L55.2864228,20.1424806 Z M56.9194048,21.6475326 L54.9714817,21.6475326 L54.50031,24 L53,24 L54.983881,15 L56.8586485,15 L59,24 L57.4153751,24 L56.9194048,21.6475326 Z" id="Fill-22" fill="#DDB407"></path>
                <polygon id="Fill-24" fill="#DDB407" points="64 15 68 15 68 16.4141163 65.3169684 16.4141163 65.3169684 18.690145 66.9935563 18.690145 66.5627493 20.0396837 65.3169684 20.0396837 65.3169684 24 64 24"></polygon>
                <polygon id="Fill-26" fill="#DDB407" points="73.791178 16.4272954 72 16.4272954 72 15 77 15 77 16.4272954 75.1591025 16.4272954 75.1591025 24 73.791178 24"></polygon>
            </g>
        </g>
    </g>
</svg>