<?xml version="1.0" encoding="UTF-8"?>
<svg width="305px" height="86px" viewBox="0 0 305 86" version="1.1" xmlns="http://www.w3.org/2000/svg" xmlns:xlink="http://www.w3.org/1999/xlink">
    <!-- Generator: Sketch 58 (84663) - https://sketch.com -->
    <title>SVG5 INVERT</title>
    <desc>Created with Sketch.</desc>
    <g id="Portfolio" stroke="none" stroke-width="1" fill="none" fill-rule="evenodd">
        <g class="projectSvg" transform="translate(-888.000000, -1222.000000)" fill="#ffffff" fill-rule="nonzero">
            <g id="SVG5-INVERT" transform="translate(888.000000, 1222.000000)">
                <g id="XMLID_191_" transform="translate(128.000000, 67.000000)">
                    <path d="M3.18072289,18.1555556 C2.12048193,17.9444444 1.06024096,17.5222222 0.212048193,17.1 L0.212048193,14.3555556 C2.33253012,15.6222222 4.45301205,16.0444444 6.14939759,16.0444444 C7.20963855,16.0444444 8.05783133,15.8333333 8.6939759,15.4111111 C9.33012048,14.9888889 9.54216867,14.3555556 9.54216867,13.5111111 C9.54216867,12.8777778 9.33012048,12.4555556 9.11807229,12.0333333 C8.6939759,11.6111111 8.26987952,11.4 7.84578313,11.1888889 C7.42168675,10.9777778 6.57349398,10.7666667 5.7253012,10.3444444 C4.66506024,9.92222222 3.81686747,9.5 2.9686747,9.28888889 C2.12048193,9.07777778 1.69638554,8.44444444 1.27228916,7.81111111 C0.848192771,7.17777778 0.636144578,6.33333333 0.636144578,5.27777778 C0.636144578,3.8 1.27228916,2.53333333 2.33253012,1.68888889 C3.39277108,0.844444444 4.87710843,0.422222222 6.78554217,0.422222222 C7.63373494,0.422222222 8.48192771,0.422222222 9.33012048,0.633333333 C10.1783133,0.844444444 11.026506,1.05555556 11.6626506,1.47777778 L11.6626506,4.22222222 C9.96626506,3.16666667 8.26987952,2.74444444 6.78554217,2.74444444 C5.7253012,2.74444444 4.87710843,2.95555556 4.24096386,3.37777778 C3.60481928,3.8 3.39277108,4.22222222 3.39277108,5.06666667 C3.39277108,5.48888889 3.60481928,5.91111111 3.81686747,6.33333333 C4.02891566,6.75555556 4.45301205,6.96666667 4.87710843,7.17777778 C5.30120482,7.38888889 5.9373494,7.6 6.78554217,8.02222222 C7.84578313,8.44444444 8.9060241,8.86666667 9.54216867,9.28888889 C10.1783133,9.71111111 10.8144578,10.1333333 11.4506024,10.9777778 C11.8746988,11.6111111 12.2987952,12.6666667 12.2987952,13.7222222 C12.2987952,15.4111111 11.6626506,16.6777778 10.6024096,17.5222222 C9.54216867,18.3666667 8.05783133,19 6.14939759,19 C5.30120482,18.5777778 4.24096386,18.3666667 3.18072289,18.1555556 Z" id="XMLID_192_"></path>
                    <polygon id="XMLID_194_" points="27.3542169 2.95555556 27.3542169 8.02222222 35.2 8.02222222 35.2 10.5555556 27.3542169 10.5555556 27.3542169 15.8333333 35.6240964 15.8333333 35.6240964 18.3666667 24.5975904 18.3666667 24.5975904 0.633333333 35.6240964 0.633333333 35.6240964 3.16666667 27.3542169 3.16666667"></polygon>
                    <path d="M58.313253,18.1555556 L54.7084337,11.1888889 L54.7084337,11.1888889 L50.8915663,11.1888889 L50.8915663,18.1555556 L48.1349398,18.1555556 L48.1349398,0.422222222 L54.2843373,0.422222222 C56.4048193,0.422222222 58.1012048,0.844444444 59.1614458,1.68888889 C60.2216867,2.53333333 60.8578313,4.01111111 60.8578313,5.7 C60.8578313,6.96666667 60.6457831,8.02222222 60.0096386,8.86666667 C59.373494,9.71111111 58.5253012,10.3444444 57.4650602,10.7666667 L61.2819277,18.1555556 L58.313253,18.1555556 Z M54.2843373,8.86666667 C55.5566265,8.86666667 56.4048193,8.65555556 57.0409639,8.23333333 C57.6771084,7.81111111 57.8891566,6.96666667 57.8891566,5.91111111 C57.8891566,4.85555556 57.6771084,4.22222222 57.0409639,3.8 C56.4048193,3.37777778 55.5566265,3.16666667 54.2843373,3.16666667 L50.8915663,3.16666667 L50.8915663,9.07777778 L54.2843373,9.07777778 L54.2843373,8.86666667 Z" id="XMLID_196_"></path>
                    <polygon id="XMLID_199_" points="87.3638554 0.422222222 80.7903614 18.1555556 77.3975904 18.1555556 70.8240964 0.422222222 73.7927711 0.422222222 79.0939759 15.2 84.3951807 0.422222222"></polygon>
                    <polygon id="XMLID_201_" points="98.1783133 0.422222222 100.93494 0.422222222 100.93494 18.1555556 98.1783133 18.1555556"></polygon>
                    <path d="M117.050602,17.5222222 C115.778313,16.6777778 114.718072,15.6222222 114.081928,14.3555556 C113.445783,12.8777778 113.021687,11.4 113.021687,9.5 C113.021687,7.6 113.445783,6.12222222 114.081928,4.64444444 C114.718072,3.16666667 115.778313,2.11111111 117.050602,1.47777778 C118.322892,0.633333333 120.019277,0.422222222 121.715663,0.422222222 C122.563855,0.422222222 123.412048,0.422222222 124.260241,0.633333333 C125.108434,0.844444444 125.956627,1.05555556 126.592771,1.47777778 L126.592771,4.22222222 L126.592771,4.22222222 C125.956627,3.8 125.320482,3.37777778 124.472289,3.16666667 C123.624096,2.95555556 122.775904,2.74444444 121.927711,2.74444444 C120.019277,2.74444444 118.53494,3.37777778 117.474699,4.43333333 C116.414458,5.7 115.990361,7.17777778 115.990361,9.28888889 C115.990361,11.4 116.414458,13.0888889 117.474699,14.1444444 C118.53494,15.4111111 120.019277,15.8333333 121.927711,15.8333333 C122.775904,15.8333333 123.624096,15.6222222 124.472289,15.4111111 C125.320482,15.2 125.956627,14.7777778 126.592771,14.1444444 L126.592771,14.1444444 L126.592771,16.8888889 C125.108434,17.7333333 123.412048,18.1555556 121.715663,18.1555556 C120.019277,18.5777778 118.322892,18.1555556 117.050602,17.5222222 Z" id="XMLID_203_"></path>
                    <polygon id="XMLID_205_" points="142.072289 2.95555556 142.072289 8.02222222 149.918072 8.02222222 149.918072 10.5555556 142.072289 10.5555556 142.072289 15.8333333 150.342169 15.8333333 150.342169 18.3666667 139.315663 18.3666667 139.315663 0.633333333 150.342169 0.633333333 150.342169 3.16666667 142.072289 3.16666667"></polygon>
                    <path d="M165.185542,18.1555556 C164.125301,17.9444444 163.06506,17.5222222 162.216867,17.1 L162.216867,14.3555556 C164.337349,15.6222222 166.457831,16.0444444 168.154217,16.0444444 C169.214458,16.0444444 170.062651,15.8333333 170.698795,15.4111111 C171.33494,14.9888889 171.546988,14.3555556 171.546988,13.5111111 C171.546988,12.8777778 171.33494,12.4555556 171.122892,12.0333333 C170.698795,11.6111111 170.274699,11.4 169.850602,11.1888889 C169.426506,10.9777778 168.578313,10.7666667 167.73012,10.3444444 C166.66988,9.92222222 165.821687,9.5 164.973494,9.28888889 C164.125301,9.07777778 163.701205,8.44444444 163.277108,7.81111111 C162.853012,7.17777778 162.640964,6.33333333 162.640964,5.27777778 C162.640964,3.8 163.277108,2.53333333 164.337349,1.68888889 C165.39759,0.844444444 166.881928,0.422222222 168.790361,0.422222222 C169.638554,0.422222222 170.486747,0.422222222 171.33494,0.633333333 C172.183133,0.844444444 173.031325,1.05555556 173.66747,1.47777778 L173.66747,4.22222222 C171.971084,3.16666667 170.274699,2.74444444 168.790361,2.74444444 C167.73012,2.74444444 166.881928,2.95555556 166.245783,3.37777778 C165.609639,3.8 165.39759,4.22222222 165.39759,5.06666667 C165.39759,5.48888889 165.609639,5.91111111 165.821687,6.33333333 C166.033735,6.75555556 166.457831,6.96666667 166.881928,7.17777778 C167.306024,7.38888889 167.942169,7.6 168.790361,8.02222222 C169.850602,8.44444444 170.910843,8.86666667 171.546988,9.28888889 C172.183133,9.71111111 172.819277,10.1333333 173.455422,10.9777778 C173.879518,11.6111111 174.303614,12.6666667 174.303614,13.7222222 C174.303614,15.4111111 173.66747,16.6777778 172.607229,17.5222222 C171.546988,18.3666667 170.062651,19 168.154217,19 C167.306024,18.5777778 166.245783,18.3666667 165.185542,18.1555556 Z" id="XMLID_207_"></path>
                </g>
                <path d="M175.320896,44.2367347 C171.91791,48.6938776 162.134328,54 150.436567,54 C133.847015,54 123,44.2367347 123,27.8938776 C123,11.7632653 133.634328,2 150.86194,2 C158.518657,2 166.813433,3.48571429 171.492537,5.82040816 L171.492537,18.9795918 L170.854478,18.9795918 C167.876866,8.57959184 161.283582,5.39591837 153.414179,5.39591837 C141.716418,5.39591837 135.548507,13.8857143 135.548507,28.5306122 C135.548507,42.3265306 141.078358,50.8163265 151.5,50.8163265 C156.817164,50.8163265 161.708955,48.2693878 163.410448,43.1755102 L163.410448,33.2 C163.410448,31.077551 161.921642,30.0163265 159.794776,30.0163265 L158.518657,30.0163265 L158.518657,29.3795918 L180,29.3795918 L180,30.0163265 L178.936567,30.0163265 C176.597015,30.0163265 175.320896,31.2897959 175.320896,33.2 L175.320896,44.2367347 Z" id="XMLID_17_"></path>
                <path d="M181,52.787234 L181,51.9361702 L182.081081,51.9361702 C184.675676,51.9361702 186.837838,50.0212766 187.054054,47.4680851 L187.054054,8.10638298 C187.054054,5.55319149 184.891892,3.63829787 182.081081,3.63829787 L181,3.63829787 L181,3 L205,3 L205,3.85106383 L203.918919,3.85106383 C201.324324,3.85106383 199.162162,5.76595745 198.945946,8.10638298 L198.945946,47.6808511 C198.945946,50.2340426 201.108108,52.1489362 203.918919,52.1489362 L205,52.1489362 L205,53 L181,52.787234 Z" id="XMLID_15_"></path>
                <path d="M240.244784,26.18107 C244.441872,28.7489712 247.379833,32.8148148 246.960124,38.8065844 C246.540416,48.2222222 239.195512,54 227.65352,54 C220.518471,54 214.852402,52.0740741 212.544004,49.5061728 C211.284878,46.2962963 212.33415,39.8765432 214.432694,36.8806584 L215.062257,36.8806584 C214.642548,44.3703704 219.888908,50.7901235 228.702792,50.7901235 C234.998424,50.7901235 238.14624,47.3662551 238.14624,43.3004115 C238.14624,40.5185185 236.25755,38.5925926 232.060463,35.8106996 L220.308617,28.3209877 C215.062257,24.8971193 212.33415,20.4032922 212.963713,14.6255144 C213.593276,6.70781893 219.469199,2 227.863375,2 C230.591482,2 235.208278,2.42798354 238.565949,2.85596708 L242.972891,2.85596708 L241.923619,13.7695473 L241.294056,13.7695473 C241.294056,8.63374486 237.726531,5.42386831 231.011191,5.42386831 C225.764831,5.42386831 222.197306,8.20576132 221.987452,11.8436214 C221.777597,15.0534979 224.29585,16.5514403 227.233812,18.4773663 L240.244784,26.18107 Z" id="XMLID_13_"></path>
                <path d="M303.933054,32.0491803 L305,44.6229508 C301.799163,49.9508197 294.970711,54 284.087866,54 C265.523013,54 254,44.4098361 254,28 C254,11.5901639 265.309623,2 284.087866,2 C291.769874,2 298.384937,3.70491803 302.866109,5.83606557 L302.866109,19.0491803 L302.225941,19.0491803 C299.238494,8.81967213 293.050209,5.19672131 284.728033,5.19672131 C272.564854,5.19672131 266.589958,14.147541 266.589958,27.7868852 C266.589958,41.6393443 272.991632,50.3770492 283.874477,50.8032787 C295.824268,50.8032787 301.158996,45.6885246 303.079498,32.2622951 L303.933054,32.0491803 Z" id="XMLID_11_"></path>
                <path d="M90,85 L90,83.5125 L90.8627451,83.5125 C93.2352941,83.5125 95.3921569,80.325 95.3921569,76.075 L95.3921569,8.925 C95.3921569,4.675 93.2352941,1.4875 90.8627451,1.4875 L90,1.4875 L90,0 L112,0 L112,1.4875 L111.137255,1.4875 C108.764706,1.4875 106.607843,4.675 106.607843,8.925 L106.607843,76.075 C106.607843,80.325 108.764706,83.5125 111.137255,83.5125 L112,83.5125 L112,85 L90,85 Z" id="XMLID_9_"></path>
                <path d="M34.0714286,47.2095177 L0,47.2095177 L0,58.1044376 L9.64285714,58.1044376 L35.7857143,58.1044376 L35.7857143,61.4567206 C35.7857143,67.1136982 32.1428571,70.2564636 26.5714286,70.4659813 C25.5,70.4659813 23.7857143,70.2564636 22.5,70.0469459 C13.9285714,67.7422513 14.7857143,60.4091322 14.7857143,60.4091322 L14.1428571,60.4091322 C7.28571429,70.2564636 13.9285714,82.4084896 26.1428571,81.9894542 C33.2142857,81.7799365 39,76.5419943 39,64.3899683 L39,47 L34.0714286,47.2095177 C34.0714286,47.2095177 34.0714286,47.2095177 34.0714286,47.2095177 Z" id="XMLID_8_"></path>
                <path d="M79.559322,80.0898876 C77.4124294,77.1011236 75.480226,73.8988764 74.8361582,73.0449438 C73.5480226,71.1235955 71.1864407,68.3483146 68.6101695,67.7078652 C74.8361582,66.8539326 77.4124294,61.9438202 77.4124294,57.4606742 C77.4124294,49.5617978 70.5423729,47 63.4576271,47 L48,47 L48,50.8426966 C48,50.8426966 48,50.8426966 48,50.8426966 L48,81.1573034 C48,81.1573034 48,81.1573034 48,81.1573034 L48,85 L57.2316384,85 L57.2316384,80.9438202 L57.2316384,73.6853933 L57.2316384,49.5617978 C57.8757062,49.5617978 59.1638418,49.5617978 60.8813559,49.5617978 C63.0282486,49.5617978 67.3220339,50.6292135 67.7514124,56.8202247 C67.7514124,58.1011236 67.7514124,58.9550562 67.5367232,59.3820225 C66.4632768,64.7191011 63.4576271,65.7865169 60.8813559,65.7865169 L59.1638418,65.7865169 L59.1638418,66.2134831 C60.2372881,66.2134831 61.9548023,67.494382 63.0282486,70.0561798 C63.6723164,72.1910112 65.819209,76.4606742 67.3220339,78.8089888 C70.3276836,83.505618 73.5480226,85 80.6327684,85 L86,85 L86,84.3595506 C83.6384181,84.3595506 82.1355932,83.2921348 79.559322,80.0898876 Z" id="XMLID_7_"></path>
                <path d="M78.1333333,26.8955624 L52.1666667,26.8955624 L52.1666667,23.5432794 C52.1666667,17.8863018 55.7555556,14.7435364 61.2444444,14.5340187 C62.3,14.5340187 63.9888889,14.7435364 65.2555556,14.9530541 C73.7,17.2577487 72.8555556,24.5908678 72.8555556,24.5908678 L73.4888889,24.5908678 C80.2444444,14.7435364 73.7,2.59151041 61.6666667,3.01054579 C54.7,3.22006348 49,8.45800573 49,20.6100317 L49,38 L53.6444444,38 C53.6444444,38 53.6444444,38 53.8555556,38 L87,38 L87,27.1050801 L78.1333333,27.1050801 L78.1333333,26.8955624 Z" id="XMLID_6_"></path>
                <path d="M29.6067416,4.05617978 L29.6067416,11.3146067 L29.6067416,35.6516854 C28.9662921,35.6516854 27.6853933,35.6516854 25.9775281,35.6516854 C23.8426966,35.6516854 19.5730337,34.5842697 19.1460674,28.3932584 C19.1460674,27.1123596 19.1460674,26.258427 19.3595506,25.8314607 C20.4269663,20.494382 23.4157303,19.4269663 25.9775281,19.4269663 L27.6853933,19.4269663 L27.6853933,19 C26.6179775,19 24.9101124,17.7191011 23.8426966,15.1573034 C23.2022472,13.0224719 21.0674157,8.75280899 19.5730337,6.40449438 C16.5842697,1.28089888 13.3820225,0 6.33707865,0 L1,0 L1,0.640449438 C3.56179775,0.640449438 5.05617978,1.49438202 7.61797753,4.91011236 C9.75280899,7.8988764 11.6741573,11.1011236 12.3146067,11.9550562 C13.5955056,13.8764045 15.9438202,16.6516854 18.505618,17.2921348 C12.3146067,18.1460674 9.75280899,23.0561798 9.75280899,27.5393258 C9.75280899,35.4382022 16.5842697,38 23.6292135,38 L39,38 L39,34.1573034 C39,34.1573034 39,34.1573034 39,34.1573034 L39,3.84269663 C39,3.84269663 39,3.84269663 39,3.84269663 L39,0 L29.8202247,0 L29.8202247,4.05617978 L29.6067416,4.05617978 Z" id="XMLID_5_"></path>
            </g>
        </g>
    </g>
</svg>