<svg xmlns="http://www.w3.org/2000/svg" viewBox="0 0 504.07 99.59"><defs><style>.cls-1,.cls-2{fill:#e5e1e1;}.cls-2{fill-rule:evenodd;}</style></defs><g id="Layer_2" data-name="Layer 2"><g id="Layer_1-2" data-name="Layer 1"><path class="cls-1" d="M36.91,0A52.2,52.2,0,0,1,49.45,1.84c4.46,1.36,6.38,2.05,8.08,0,1.26-1.54,4-.47,5.52,6a90.86,90.86,0,0,1,2.34,14.91c0,2.06-2.34,5.06-7,1.39s-8.09-7.82-16.15-7.82C31,16.28,30.1,20.65,30.1,24.77s3.4,9.41,12.34,11.48,32.73,6.88,32.73,33.5c0,21.1-18.49,29.84-31.46,29.84s-24.45-5.75-29.12-8A18,18,0,0,0,4,89.72c-2.56.21-5.53.21-3-4.83S11.4,66.77,13.74,64.7s4.46-1.38,5.52,2.07,8.3,16.75,20.21,16.75,16.36-6.88,16.36-11.47S54.77,61.5,48.18,58.74,26.07,53.92,17.57,47.27s-8.72-17-8.72-21.57S12.88,0,36.91,0"/><path class="cls-2" d="M145.12,3.57c8.85,0,13.7-1.69,18-1.69s4.85,5.7,1.44,8.46c-2.43,2-4,.92-1.15,12s15.43,52.41,16.55,55.71c2,5.85,8.84,10,8.84,13.08,0,4.63-1.72,3.86-5.71,3.86s-6.27-1.55-12-1.55S158,95,154.26,95s-5.15-.16-5.15-3.86,8-4.46,6.57-10.31c-.43-1.72-1.42-7.69-2.56-11.09H132.29c-1.71,5.86-2.44,7.45-3.14,12.33-.57,4,5.71,5.68,5.71,9.07,0,4.33-3.42,3.86-5.71,3.86s-5.41-1.55-11.41-1.55S104.62,95,100.91,95s-4-1.39-4-3.86,2.85-2.92,4.56-3.84c2.74-1.49,4.28-4.93,5.42-8S122.43,30.86,127.16,19c.86-2.17,2.28-6.15-.86-7.7S122.59,7.88,122.59,6s1.15-4.14,4.57-4.14,9.12,1.69,18,1.69M143.71,23l-9.13,32h15.68Z"/><path class="cls-1" d="M352.39,79.94h17.7c5.42,0,11.12-5.23,15.68-9.24s5.14,3.07,4.56,6.46S382.92,96,380.65,96s-2-1.86-4.86-2.78-10.57-.92-22.24-.92-26.24,1.54-29.09,2.16-5.14.31-5.14-2.78,1.44-3.07,4.26-4.92a12.81,12.81,0,0,0,4.28-5.23V19.3c0-3.71-1.13-5.55-2.54-7.09s-4.87-3.07-4.87-6.16,1-4.15,4.72-4.15S330.44,3.59,339,3.59s9.63-1.69,12.3-1.69,5.09,2.61,5.09,4.45-4,3.09-5.42,4.63-1.59.6-1.59,8.32V73.17c0,6.15.46,6.77,3,6.77"/><path class="cls-2" d="M460.41,3.73c8.85,0,13.72-1.7,18-1.7s4.86,5.68,1.43,8.47c-2.44,1.95-4,.92-1.13,12s15.4,52.43,16.54,55.72c2,5.85,8.84,10,8.84,13.09,0,4.61-1.71,3.84-5.72,3.84s-6.27-1.54-12-1.54-13.11,1.54-16.82,1.54-5.14-.15-5.14-3.84,8-4.47,6.55-10.31c-.42-1.74-1.41-7.7-2.57-11.1H447.58c-1.69,5.85-2.42,7.45-3.12,12.32-.58,4,5.69,5.7,5.69,9.09,0,4.29-3.43,3.84-5.69,3.84S439,93.61,433,93.61s-13.11,1.54-16.82,1.54-4-1.39-4-3.84,2.88-2.93,4.57-3.85c2.74-1.48,4.28-4.93,5.42-8S437.73,31,442.44,19.11c.88-2.16,2.29-6.15-.83-7.69S437.9,8,437.9,6.18,439,2,442.44,2s9.15,1.7,18,1.7M459,23.12l-9.12,32h15.68Z"/><path class="cls-1" d="M227.56,3.59c8.55,0,9.63-1.69,12.29-1.69S245,4.51,245,6.35s-4,3.09-5.42,4.63-1.72.6-1.72,8.32V73.08c0,5.55,5.42,9.54,13.13,9.54s14.67-4.31,14.67-9.54V18.67c0-3.68.29-8-2-8.92s-5.42-.61-5.42-4,1-3.85,3.57-3.85,8.13,1.69,12.69,1.69,6.42-1.69,10.41-1.69,5.85.77,5.85,3.23-3.14,2.77-4.27,4-3.72.92-3.72,8v53.8c0,4.32,5.13,6.16,5.13,8.92,0,2.24-3.71,3.7-6.26,3.7-4.86,0-14.39,13.85-30.36,13.85-21.39,0-29.38-13.85-33.08-13.85s-6.56-.93-6.56-3.7,4.84-4.31,4.84-8.92V19.3c0-3.71-1.14-5.55-2.56-7.09S209,9.14,209,6.05s1-4.15,4.7-4.15S219,3.59,227.56,3.59"/></g></g></svg>