<?xml version="1.0" encoding="UTF-8"?>
<svg width="82px" height="115px" viewBox="0 0 82 115" version="1.1" xmlns="http://www.w3.org/2000/svg" xmlns:xlink="http://www.w3.org/1999/xlink">
    <title>Logo elements</title>
    <defs>
        <polygon id="path-1" points="0 114 81.126 114 81.126 0.318 0 0.318"></polygon>
    </defs>
    <g id="Home" stroke="none" strokeWidth="1" fill="none" fill-rule="evenodd">
        <g id="Desktop-HD" transform="translate(-679.000000, -19.000000)">
            <g id="Logo" transform="translate(679.000000, 19.000000)">
                <g id="Logo-elements" transform="translate(0.000000, 0.682000)">
                    <path d="M30.3158,38.8758 C29.4348,41.7298 28.1748,43.1578 26.5348,43.1578 L23.6188,43.1578 L23.6188,13.5478 C25.1978,13.5478 26.5948,14.0948 27.8098,15.1878 C29.0238,16.2808 29.9658,17.8148 30.6348,19.7888 C31.3018,21.7638 31.6368,24.0558 31.6368,26.6678 C31.6368,31.9508 31.1958,36.0218 30.3158,38.8758 M37.0458,19.4868 C35.3308,16.7738 34.7268,15.6358 32.8898,14.3448 C31.0508,13.0548 28.9338,12.4088 26.5348,12.4088 L17.2418,12.4088 L14.9308,12.4088 L14.9308,44.2958 L17.2418,44.2958 L26.5348,44.2958 C30.4208,44.2958 33.4198,42.8768 35.5318,40.0368 C39.1758,35.1338 43.4738,33.3578 43.4738,26.0698 C43.4738,22.8268 39.1048,22.7438 37.0458,19.4868" id="Fill-3" fill="#DDB407"></path>
                    <path d="M57.5809,49.366 L57.5809,49.576 L57.5809,75.815 L57.5639,75.855 C55.3859,75.834 54.0759,75.675 53.1029,75.487 C44.4859,73.874 43.1919,67.755 43.1919,65.148 C43.1919,59.864 43.6299,56.789 44.5049,53.933 C45.3909,51.077 49.0329,49.774 51.2719,49.655 L57.5809,49.366 L57.5809,47.515 L48.2869,47.515 C44.4059,47.515 40.5049,48.779 39.4409,51.555 C38.2269,54.72 38.4069,56.586 36.2939,61.157 C33.6559,66.864 32.9009,67.748 35.6589,72.004 C37.0549,74.158 40.8639,78.084 43.0819,78.372 C44.4789,78.552 49.0999,78.573 53.7729,78.539 L53.6769,78.552 L65.3729,78.552 L65.3729,78.396 L65.3729,78.186 L65.3729,77.099 L65.3729,49.786 L65.3729,49.605 L65.3729,49.366 L57.5809,49.366 Z" id="Fill-5" fill="#B5E2D2"></path>
                    <path d="M16.7987,90.5794 C16.6477,90.4384 16.4147,90.3684 16.1007,90.3684 L15.3747,90.3684 L15.3747,94.4054 L16.0517,94.4054 C16.3487,94.4054 16.5857,94.3604 16.7617,94.2694 C16.9377,94.1794 17.0257,93.9784 17.0257,93.6714 L17.0257,91.2434 C17.0257,90.9414 16.9497,90.7204 16.7987,90.5794 L16.7987,90.5794 Z M14.4667,89.4524 L16.0187,89.4524 C16.6407,89.4524 17.1147,89.6234 17.4427,89.9644 C17.7697,90.3064 17.9337,90.7604 17.9337,91.3264 L17.9337,93.5884 C17.9337,94.6884 17.3497,95.2394 16.1837,95.2394 L14.4667,95.2394 L14.4667,89.4524 Z" id="Fill-7" fill="#FFFFFF"></path>
                    <path d="M22.6058,92.763 L23.5058,92.763 L23.0348,90.98 L22.6058,92.763 Z M23.7208,93.729 L22.3918,93.729 L22.0688,95.24 L21.0458,95.24 L22.3998,89.461 L23.6788,89.461 L25.1398,95.24 L24.0588,95.24 L23.7208,93.729 Z" id="Fill-9" fill="#FFFFFF"></path>
                    <path d="M30.4935,90.5794 C30.3425,90.4384 30.1095,90.3684 29.7955,90.3684 L29.0695,90.3684 L29.0695,94.4054 L29.7465,94.4054 C30.0435,94.4054 30.2805,94.3604 30.4565,94.2694 C30.6325,94.1794 30.7205,93.9784 30.7205,93.6714 L30.7205,91.2434 C30.7205,90.9414 30.6445,90.7204 30.4935,90.5794 L30.4935,90.5794 Z M28.1615,89.4524 L29.7135,89.4524 C30.3355,89.4524 30.8095,89.6234 31.1375,89.9644 C31.4645,90.3064 31.6285,90.7604 31.6285,91.3264 L31.6285,93.5884 C31.6285,94.6884 31.0445,95.2394 29.8785,95.2394 L28.1615,95.2394 L28.1615,89.4524 Z" id="Fill-11" fill="#FFFFFF"></path>
                    <path d="M36.3002,92.763 L37.2002,92.763 L36.7292,90.98 L36.3002,92.763 Z M37.4152,93.729 L36.0862,93.729 L35.7632,95.24 L34.7402,95.24 L36.0942,89.461 L37.3732,89.461 L38.8342,95.24 L37.7532,95.24 L37.4152,93.729 Z" id="Fill-13" fill="#FFFFFF"></path>
                    <path d="M15.556,102.6692 L16.456,102.6692 L15.985,100.8862 L15.556,102.6692 Z M16.671,103.6352 L15.342,103.6352 L15.019,105.1462 L13.996,105.1462 L15.35,99.3672 L16.629,99.3672 L18.09,105.1462 L17.009,105.1462 L16.671,103.6352 Z" id="Fill-15" fill="#FFFFFF"></path>
                    <path d="M23.452,102.4593 C23.581,102.3183 23.661,102.1573 23.691,101.9763 C23.722,101.7943 23.737,101.5793 23.737,101.3323 C23.737,101.0403 23.695,100.8183 23.613,100.6673 C23.53,100.5163 23.414,100.4143 23.266,100.3613 C23.118,100.3103 22.925,100.2833 22.688,100.2833 L22.019,100.2833 L22.019,102.6693 L22.853,102.6693 C23.123,102.6693 23.323,102.5993 23.452,102.4593 L23.452,102.4593 Z M23.225,103.5363 L22.019,103.5363 L22.019,105.1463 L21.112,105.1463 L21.112,99.3673 L23.068,99.3673 C23.431,99.3673 23.734,99.4573 23.976,99.6363 C24.218,99.8143 24.398,100.0523 24.516,100.3503 C24.635,100.6473 24.694,100.9743 24.694,101.3323 C24.694,101.6023 24.683,101.8353 24.661,102.0333 C24.639,102.2313 24.583,102.4383 24.492,102.6523 C24.401,102.8673 24.257,103.0603 24.058,103.2303 L24.702,105.1463 L23.778,105.1463 L23.225,103.5363 Z" id="Fill-17" fill="#FFFFFF"></path>
                    <polygon id="Fill-19" fill="#FFFFFF" points="28.6068 100.2835 27.4188 100.2835 27.4188 99.3675 30.7368 99.3675 30.7368 100.2835 29.5148 100.2835 29.5148 105.1455 28.6068 105.1455"></polygon>
                    <path d="M33.7499,105.0218 C33.6669,105.1048 33.5679,105.1458 33.4529,105.1458 C33.3429,105.1458 33.2469,105.1048 33.1639,105.0218 C33.0809,104.9398 33.0399,104.8428 33.0399,104.7328 C33.0399,104.6178 33.0809,104.5188 33.1639,104.4358 C33.2469,104.3538 33.3429,104.3118 33.4529,104.3118 C33.5679,104.3118 33.6669,104.3538 33.7499,104.4358 C33.8329,104.5188 33.8739,104.6178 33.8739,104.7328 C33.8739,104.8428 33.8329,104.9398 33.7499,105.0218" id="Fill-21" fill="#FFFFFF"></path>
                    <path d="M38.661,105.2288 C38.182,105.2288 37.794,105.1018 37.497,104.8488 C37.2,104.5958 37.052,104.1908 37.052,103.6348 L37.052,100.9858 C37.052,100.5668 37.111,100.2498 37.229,100.0368 C37.348,99.8218 37.528,99.6398 37.77,99.4918 C38.012,99.3538 38.309,99.2848 38.661,99.2848 C39.091,99.2848 39.478,99.3748 39.825,99.5568 L39.569,100.3828 C39.316,100.2898 39.038,100.2428 38.736,100.2428 C38.504,100.2428 38.317,100.3058 38.174,100.4318 C38.031,100.5588 37.959,100.7178 37.959,100.9118 L37.959,103.6188 C37.959,104.0818 38.218,104.3118 38.736,104.3118 C38.901,104.3118 39.066,104.2938 39.231,104.2578 C39.396,104.2228 39.616,104.1688 39.891,104.0968 L40.032,104.9568 C39.542,105.1378 39.085,105.2288 38.661,105.2288" id="Fill-23" fill="#FFFFFF"></path>
                    <path d="M45.3358,102.4593 C45.4648,102.3183 45.5448,102.1573 45.5748,101.9763 C45.6058,101.7943 45.6208,101.5793 45.6208,101.3323 C45.6208,101.0403 45.5788,100.8183 45.4968,100.6673 C45.4138,100.5163 45.2978,100.4143 45.1498,100.3613 C45.0018,100.3103 44.8088,100.2833 44.5718,100.2833 L43.9028,100.2833 L43.9028,102.6693 L44.7368,102.6693 C45.0068,102.6693 45.2068,102.5993 45.3358,102.4593 L45.3358,102.4593 Z M45.1088,103.5363 L43.9028,103.5363 L43.9028,105.1463 L42.9958,105.1463 L42.9958,99.3673 L44.9518,99.3673 C45.3148,99.3673 45.6178,99.4573 45.8598,99.6363 C46.1018,99.8143 46.2818,100.0523 46.3998,100.3503 C46.5188,100.6473 46.5778,100.9743 46.5778,101.3323 C46.5778,101.6023 46.5668,101.8353 46.5448,102.0333 C46.5228,102.2313 46.4668,102.4383 46.3758,102.6523 C46.2848,102.8673 46.1408,103.0603 45.9418,103.2303 L46.5858,105.1463 L45.6618,105.1463 L45.1088,103.5363 Z" id="Fill-25" fill="#FFFFFF"></path>
                    <path d="M51.035,102.6692 L51.935,102.6692 L51.464,100.8862 L51.035,102.6692 Z M52.15,103.6352 L50.821,103.6352 L50.498,105.1462 L49.475,105.1462 L50.829,99.3672 L52.108,99.3672 L53.569,105.1462 L52.488,105.1462 L52.15,103.6352 Z" id="Fill-27" fill="#FFFFFF"></path>
                    <polygon id="Fill-29" fill="#FFFFFF" points="56.5912 99.3675 59.3482 99.3675 59.3482 100.2755 57.4992 100.2755 57.4992 101.7365 58.6542 101.7365 58.3582 102.6025 57.4992 102.6025 57.4992 105.1455 56.5912 105.1455"></polygon>
                    <polygon id="Fill-31" fill="#FFFFFF" points="63.1532 100.2835 61.9652 100.2835 61.9652 99.3675 65.2832 99.3675 65.2832 100.2835 64.0612 100.2835 64.0612 105.1455 63.1532 105.1455"></polygon>
                    <mask id="mask-2" fill="white">
                        <use xlink:href="#path-1"></use>
                    </mask>
                    <g id="Clip-34"></g>
                    <polygon id="Stroke-33" stroke="#DDB407" strokeWidth="1.5" mask="url(#mask-2)" points="0.75 113.25 80.376 113.25 80.376 1.067 0.75 1.067"></polygon>
                    <path d="M24.8475,55.8245 L28.3095,66.3025 L31.7715,55.8245 L24.8475,55.8245 Z M25.5765,78.3275 L14.9165,45.9855 L21.7495,45.9855 L24.3915,54.6855 L33.1315,54.6855 L25.5765,78.3275 Z" id="Fill-2" fill="#B5E2D2" mask="url(#mask-2)"></path>
                    <path d="M50.0277,34.6595 L46.5657,24.1825 L43.1027,34.6595 L50.0277,34.6595 Z M54.7127,12.6515 L65.3727,44.9935 L53.1247,44.4995 L39.8697,44.4995 L54.7127,12.6515 Z" id="Fill-1" fill="#DDB407" mask="url(#mask-2)"></path>
                </g>
            </g>
        </g>
    </g>
</svg>