<?xml version="1.0" encoding="UTF-8"?>
<svg style="fill: #ffffff" width="446px" height="81px" viewBox="0 0 446 81" version="1.1" xmlns="http://www.w3.org/2000/svg" xmlns:xlink="http://www.w3.org/1999/xlink">
    <!-- Generator: Sketch 58 (84663) - https://sketch.com -->
    <title>orizontal full beige</title>
    <desc>Created with Sketch.</desc>
    <g id="Portfolio" stroke="none" strokeWidth="1" fill="none" fill-rule="evenodd">
        <g class="projectSvg" transform="translate(-222.000000, -508.000000)" fill="#ffffff" fill-rule="nonzero">
            <g id="showcase" transform="translate(-1.000000, 184.000000)">
                <g id="orizontal-full-beige" transform="translate(223.000000, 324.000000)">
                    <g id="Group" transform="translate(139.000000, 33.000000)">
                        <path d="M48.6384314,32.7604167 C48.2772549,32.8391204 47.7354902,32.9571759 47.053268,33.0949074 C46.3710458,33.2326389 45.5884967,33.2916667 44.7858824,33.2916667 C43.1605882,33.2916667 41.976732,32.9965278 41.2142484,32.4259259 C40.4718301,31.8553241 40.0905882,30.8321759 40.0905882,29.3564815 L40.0905882,12.0613426 C40.0905882,10.2905093 39.5889542,8.99189815 38.6057516,8.20486111 C37.6024837,7.39814815 36.2982353,7.00462963 34.6729412,7.00462963 C33.5894118,7.00462963 32.5259477,7.20138889 31.5226797,7.59490741 C30.4993464,7.98842593 29.6164706,8.51967593 28.8339216,9.18865741 C28.9743791,9.81828704 29.0345752,10.4282407 29.0345752,11.0578704 L29.0345752,32.7604167 C28.6733987,32.8391204 28.131634,32.9571759 27.4494118,33.0949074 C26.7471242,33.2326389 25.9846405,33.2916667 25.1820261,33.2916667 C23.556732,33.2916667 22.3728758,32.9965278 21.6103922,32.4259259 C20.8679739,31.8553241 20.486732,30.8321759 20.486732,29.3564815 L20.486732,12.0613426 C20.486732,10.2905093 19.9650327,8.99189815 18.921634,8.20486111 C17.8782353,7.39814815 16.5539216,7.00462963 14.9085621,7.00462963 C13.784902,7.00462963 12.7415033,7.18171296 11.778366,7.53587963 C10.8152288,7.8900463 10.0326797,8.24421296 9.41065359,8.59837963 L9.41065359,32.7604167 C9.00934641,32.8391204 8.4675817,32.9571759 7.78535948,33.0949074 C7.10313725,33.2326389 6.34065359,33.2916667 5.47784314,33.2916667 C3.89267974,33.2916667 2.70882353,32.9965278 1.94633987,32.4259259 C1.18385621,31.8553241 0.78254902,30.8321759 0.78254902,29.3564815 L0.78254902,8.00810185 C0.78254902,6.9849537 1.00326797,6.13888889 1.46477124,5.45023148 C1.90620915,4.76157407 2.60849673,4.11226852 3.57163399,3.48263889 C4.93607843,2.59722222 6.64163399,1.84953704 8.72843137,1.25925926 C10.8152288,0.668981481 12.9622222,0.354166667 15.1694118,0.354166667 C19.2828105,0.354166667 22.6337255,1.43634259 25.2221569,3.62037037 C26.5264052,2.69560185 28.0313072,1.90856481 29.7368627,1.29861111 C31.4424183,0.688657407 33.4288889,0.373842593 35.7364052,0.373842593 C37.5021569,0.373842593 39.1675817,0.590277778 40.7527451,1.00347222 C42.3379085,1.41666667 43.7023529,2.10532407 44.8661438,3.03009259 C46.0299346,3.95486111 46.9328758,5.15509259 47.615098,6.59143519 C48.2973203,8.02777778 48.6384314,9.75925926 48.6384314,11.7465278 L48.6384314,32.7604167 L48.6384314,32.7604167 Z" id="Path"></path>
                        <path d="M69.6669281,0.354166667 C74.1013725,0.354166667 77.6328758,1.27893519 80.2815033,3.14814815 C82.9301307,5.01736111 84.2544444,7.8900463 84.2544444,11.8055556 L84.2544444,27.1724537 C84.2544444,28.2349537 83.9935948,29.0810185 83.4317647,29.7106481 C82.89,30.3402778 82.2077778,30.8912037 81.385098,31.3831019 C80.1209804,32.130787 78.5157516,32.7407407 76.5694118,33.1736111 C74.6230719,33.6261574 72.395817,33.8425926 69.9277778,33.8425926 C65.3930065,33.8425926 61.8414379,32.9965278 59.2329412,31.2847222 C56.6244444,29.5729167 55.3201961,27.0150463 55.3201961,23.5914352 C55.3201961,20.6203704 56.2833333,18.337963 58.2096078,16.7638889 C60.1358824,15.1898148 62.9249673,14.2256944 66.5969281,13.8715278 L75.8871895,12.9467593 L75.8871895,11.7465278 C75.8871895,10.0543981 75.2651634,8.81481481 74.0211111,8.02777778 C72.7770588,7.22106481 71.0313725,6.8275463 68.7639869,6.8275463 C66.9982353,6.8275463 65.2726144,7.04398148 63.6071895,7.45717593 C61.9417647,7.87037037 60.4368627,8.40162037 59.1326144,9.01157407 C58.6309804,8.65740741 58.2096078,8.18518519 57.8684967,7.57523148 C57.5273856,6.96527778 57.3668627,6.31597222 57.3668627,5.60763889 C57.3668627,4.72222222 57.5875817,3.99421296 58.0089542,3.44328704 C58.4303268,2.89236111 59.1326144,2.38078704 60.0756863,1.94791667 C61.3799346,1.41666667 62.8848366,1.02314815 64.5502614,0.747685185 C66.255817,0.472222222 67.9413072,0.354166667 69.6669281,0.354166667 Z M69.9478431,27.4282407 C71.2520915,27.4282407 72.4560131,27.3101852 73.5395425,27.0543981 C74.6230719,26.818287 75.4256863,26.5034722 75.9072549,26.1493056 L75.9072549,18.7708333 L69.325817,19.3611111 C67.5199346,19.5381944 66.1354248,19.931713 65.1923529,20.5219907 C64.249281,21.1122685 63.7677124,22.056713 63.7677124,23.3553241 C63.7677124,24.6539352 64.249281,25.6377315 65.2324837,26.3460648 C66.1956209,27.0740741 67.760719,27.4282407 69.9478431,27.4282407 Z" id="Shape"></path>
                        <path d="M112.325882,8.32291667 C111.222288,7.4375 109.717386,6.9849537 107.811176,6.9849537 C106.506928,6.9849537 105.282941,7.14236111 104.179346,7.45717593 C103.075752,7.77199074 102.112614,8.16550926 101.289935,8.65740741 L101.289935,32.7604167 C100.888627,32.8391204 100.346863,32.9571759 99.6646405,33.0949074 C98.9824183,33.2326389 98.2199346,33.2916667 97.3571242,33.2916667 C95.7719608,33.2916667 94.5881046,32.9965278 93.8256209,32.4259259 C93.0631373,31.8553241 92.6618301,30.8321759 92.6618301,29.3564815 L92.6618301,8.00810185 C92.6618301,6.94560185 92.882549,6.07986111 93.3440523,5.41087963 C93.7854902,4.74189815 94.4877778,4.09259259 95.450915,3.48263889 C96.7551634,2.59722222 98.5008497,1.84953704 100.687974,1.25925926 C102.855033,0.668981481 105.262876,0.354166667 107.871373,0.354166667 C112.526536,0.354166667 116.138301,1.35763889 118.706667,3.38425926 C121.254967,5.41087963 122.53915,8.36226852 122.53915,12.2777778 L122.53915,32.7800926 C122.177974,32.8587963 121.636209,32.9768519 120.953987,33.1145833 C120.271765,33.2523148 119.489216,33.3113426 118.686601,33.3113426 C117.061307,33.3113426 115.877451,33.0162037 115.114967,32.4456019 C114.372549,31.875 113.991307,30.8518519 113.991307,29.3761574 L113.991307,12.5335648 C113.991307,10.625 113.429477,9.22800926 112.325882,8.32291667 Z" id="Path"></path>
                        <path d="M147.801438,7.06365741 C146.436993,7.06365741 145.192941,7.28009259 144.02915,7.73263889 C142.865359,8.18518519 141.882157,8.81481481 141.039412,9.66087963 C140.196667,10.5069444 139.53451,11.5497685 139.032876,12.7893519 C138.531242,14.0289352 138.290458,15.4849537 138.290458,17.1180556 C138.290458,20.4039352 139.173333,22.8831019 140.939085,24.5358796 C142.704837,26.2083333 144.992288,27.0347222 147.801438,27.0347222 C149.386601,27.0347222 150.751046,26.818287 151.914837,26.4050926 C153.078627,25.9918981 154.101961,25.5196759 155.004902,25.0474537 C155.646993,25.5 156.148627,25.9918981 156.529869,26.5821759 C156.911111,27.1527778 157.111765,27.8217593 157.111765,28.5694444 C157.111765,30.0844907 156.208824,31.3240741 154.402941,32.2881944 C152.597059,33.2719907 150.149085,33.744213 147.079085,33.744213 C144.490654,33.744213 142.143007,33.4097222 139.975948,32.7210648 C137.828954,32.0324074 135.982941,30.9895833 134.437908,29.5925926 C132.892876,28.1956019 131.70902,26.4641204 130.866275,24.3587963 C130.023529,22.2731481 129.622222,19.8530093 129.622222,17.0983796 C129.622222,14.3043981 130.06366,11.8449074 130.986667,9.73958333 C131.889608,7.63425926 133.13366,5.88310185 134.678693,4.48611111 C136.243791,3.08912037 138.069739,2.0462963 140.136471,1.35763889 C142.203203,0.668981481 144.430458,0.334490741 146.79817,0.334490741 C149.828039,0.334490741 152.255948,0.846064815 154.06183,1.88888889 C155.867712,2.93171296 156.770654,4.21064815 156.770654,5.70601852 C156.770654,6.41435185 156.57,7.06365741 156.188758,7.63425926 C155.807516,8.20486111 155.366078,8.67708333 154.864444,9.03125 C153.961503,8.53935185 152.958235,8.08680556 151.854641,7.67361111 C150.710915,7.28009259 149.366536,7.06365741 147.801438,7.06365741 Z" id="Path"></path>
                        <path d="M194.754379,17.0590278 C194.754379,19.6365741 194.353072,21.9583333 193.570523,24.0243056 C192.787974,26.0902778 191.664314,27.8414352 190.219608,29.3171296 C188.774902,30.7731481 187.029216,31.8946759 184.982549,32.681713 C182.955948,33.4490741 180.668497,33.8425926 178.120196,33.8425926 C175.591961,33.8425926 173.30451,33.4490741 171.257843,32.681713 C169.231242,31.9143519 167.485556,30.7928241 166.04085,29.3564815 C164.596144,27.9201389 163.472484,26.1689815 162.689935,24.1030093 C161.88732,22.037037 161.506078,19.6956019 161.506078,17.0787037 C161.506078,14.5011574 161.907386,12.1793981 162.689935,10.1134259 C163.472484,8.0474537 164.616209,6.2962963 166.08098,4.8599537 C167.545752,3.42361111 169.311503,2.30208333 171.338105,1.53472222 C173.364706,0.767361111 175.632092,0.373842593 178.120196,0.373842593 C180.608301,0.373842593 182.875686,0.767361111 184.902288,1.53472222 C186.928889,2.30208333 188.694641,3.42361111 190.159412,4.89930556 C191.624183,6.375 192.767908,8.12615741 193.550458,10.1921296 C194.373137,12.21875 194.754379,14.5208333 194.754379,17.0590278 Z M178.140261,7.00462963 C175.692288,7.00462963 173.766013,7.8900463 172.361438,9.6412037 C170.956863,11.3923611 170.254575,13.8715278 170.254575,17.0590278 C170.254575,20.3055556 170.936797,22.7847222 172.321307,24.5162037 C173.705817,26.2476852 175.632092,27.1134259 178.120196,27.1134259 C180.608301,27.1134259 182.534575,26.2476852 183.919085,24.4768519 C185.303595,22.7256944 185.985817,20.2465278 185.985817,17.0590278 C185.985817,13.8715278 185.283529,11.3923611 183.878954,9.6412037 C182.474379,7.8900463 180.56817,7.00462963 178.140261,7.00462963 Z" id="Shape"></path>
                        <path d="M249.593007,32.7604167 C249.23183,32.8391204 248.690065,32.9571759 248.007843,33.0949074 C247.325621,33.2326389 246.543072,33.2916667 245.740458,33.2916667 C244.115163,33.2916667 242.931307,32.9965278 242.168824,32.4259259 C241.426405,31.8553241 241.045163,30.8321759 241.045163,29.3564815 L241.045163,12.0613426 C241.045163,10.2905093 240.543529,8.99189815 239.560327,8.20486111 C238.557059,7.39814815 237.25281,7.00462963 235.627516,7.00462963 C234.543987,7.00462963 233.480523,7.20138889 232.477255,7.59490741 C231.453922,7.98842593 230.571046,8.51967593 229.788497,9.18865741 C229.928954,9.81828704 229.98915,10.4282407 229.98915,11.0578704 L229.98915,32.7604167 C229.627974,32.8391204 229.086209,32.9571759 228.403987,33.0949074 C227.701699,33.2326389 226.939216,33.2916667 226.136601,33.2916667 C224.511307,33.2916667 223.327451,32.9965278 222.564967,32.4259259 C221.822549,31.8553241 221.441307,30.8321759 221.441307,29.3564815 L221.441307,12.0613426 C221.441307,10.2905093 220.919608,8.99189815 219.876209,8.20486111 C218.83281,7.39814815 217.508497,7.00462963 215.863137,7.00462963 C214.739477,7.00462963 213.696078,7.18171296 212.732941,7.53587963 C211.769804,7.8900463 210.987255,8.24421296 210.365229,8.59837963 L210.365229,32.7604167 C209.963922,32.8391204 209.422157,32.9571759 208.739935,33.0949074 C208.057712,33.2326389 207.295229,33.2916667 206.432418,33.2916667 C204.847255,33.2916667 203.663399,32.9965278 202.900915,32.4259259 C202.138431,31.8553241 201.737124,30.8321759 201.737124,29.3564815 L201.737124,8.00810185 C201.737124,6.9849537 201.957843,6.13888889 202.419346,5.45023148 C202.860784,4.76157407 203.563072,4.11226852 204.526209,3.48263889 C205.890654,2.59722222 207.596209,1.84953704 209.683007,1.25925926 C211.769804,0.668981481 213.916797,0.354166667 216.123987,0.354166667 C220.237386,0.354166667 223.588301,1.43634259 226.176732,3.62037037 C227.48098,2.69560185 228.985882,1.90856481 230.691438,1.29861111 C232.396993,0.688657407 234.383464,0.373842593 236.69098,0.373842593 C238.456732,0.373842593 240.122157,0.590277778 241.70732,1.00347222 C243.292484,1.41666667 244.656928,2.10532407 245.820719,3.03009259 C246.98451,3.95486111 247.887451,5.15509259 248.569673,6.59143519 C249.251895,8.02777778 249.593007,9.75925926 249.593007,11.7465278 L249.593007,32.7604167 Z" id="Path"></path>
                        <path d="M306.076993,32.7604167 C305.715817,32.8391204 305.174052,32.9571759 304.49183,33.0949074 C303.809608,33.2326389 303.027059,33.2916667 302.224444,33.2916667 C300.59915,33.2916667 299.415294,32.9965278 298.65281,32.4259259 C297.910392,31.8553241 297.52915,30.8321759 297.52915,29.3564815 L297.52915,12.0613426 C297.52915,10.2905093 297.027516,8.99189815 296.044314,8.20486111 C295.041046,7.39814815 293.736797,7.00462963 292.111503,7.00462963 C291.027974,7.00462963 289.96451,7.20138889 288.961242,7.59490741 C287.937908,7.98842593 287.055033,8.51967593 286.272484,9.18865741 C286.412941,9.81828704 286.473137,10.4282407 286.473137,11.0578704 L286.473137,32.7604167 C286.111961,32.8391204 285.570196,32.9571759 284.887974,33.0949074 C284.185686,33.2326389 283.423203,33.2916667 282.620588,33.2916667 C280.995294,33.2916667 279.811438,32.9965278 279.048954,32.4259259 C278.306536,31.8553241 277.925294,30.8321759 277.925294,29.3564815 L277.925294,12.0613426 C277.925294,10.2905093 277.403595,8.99189815 276.360196,8.20486111 C275.316797,7.39814815 273.992484,7.00462963 272.347124,7.00462963 C271.223464,7.00462963 270.180065,7.18171296 269.216928,7.53587963 C268.253791,7.8900463 267.471242,8.24421296 266.849216,8.59837963 L266.849216,32.7604167 C266.447908,32.8391204 265.906144,32.9571759 265.223922,33.0949074 C264.541699,33.2326389 263.779216,33.2916667 262.916405,33.2916667 C261.331242,33.2916667 260.147386,32.9965278 259.384902,32.4259259 C258.622418,31.8553241 258.221111,30.8321759 258.221111,29.3564815 L258.221111,8.00810185 C258.221111,6.9849537 258.44183,6.13888889 258.903333,5.45023148 C259.344771,4.76157407 260.047059,4.11226852 261.010196,3.48263889 C262.374641,2.59722222 264.080196,1.84953704 266.166993,1.25925926 C268.253791,0.668981481 270.400784,0.354166667 272.607974,0.354166667 C276.721373,0.354166667 280.072288,1.43634259 282.660719,3.62037037 C283.964967,2.69560185 285.469869,1.90856481 287.175425,1.29861111 C288.88098,0.688657407 290.867451,0.373842593 293.174967,0.373842593 C294.940719,0.373842593 296.606144,0.590277778 298.191307,1.00347222 C299.776471,1.41666667 301.140915,2.10532407 302.304706,3.03009259 C303.468497,3.95486111 304.371438,5.15509259 305.05366,6.59143519 C305.735882,8.02777778 306.076993,9.75925926 306.076993,11.7465278 L306.076993,32.7604167 Z" id="Path"></path>
                    </g>
                    <g id="Group">
                        <path d="M109.619306,38.5230039 C106.227569,38.5230039 103.136875,39.8698845 101.611597,42.0007702 L93.4433333,53.4995122 L89.0681944,30.120077 C88.4059028,26.6021053 83.9103472,24.0691656 79.0334722,24.4712195 C78.0902083,24.5516303 77.2071528,24.7325546 76.404375,24.9938896 C74.5178472,25.5768678 72.9122917,26.6021053 71.9690278,27.9489859 L53.7861111,53.6000257 L49.3909028,30.120077 C49.3708333,30.0597689 49.3507639,29.9793582 49.3306944,29.9190501 C48.8088889,27.1046727 45.5777083,24.6923492 41.1825,24.4511168 C41.1624306,24.4511168 41.1222917,24.4511168 41.1022222,24.4511168 C40.9015278,24.4310141 40.6807639,24.4310141 40.4800694,24.4310141 C40.4198611,24.4310141 40.3797222,24.4310141 40.3195139,24.4310141 C39.9984028,24.4310141 39.6772917,24.4511168 39.3561806,24.4712195 C39.3160417,24.4712195 39.2959722,24.4712195 39.2558333,24.4913222 C39.2156944,24.4913222 39.1755556,24.5114249 39.1354167,24.5114249 C38.7540972,24.5516303 38.3928472,24.6119384 38.0315972,24.6722465 C38.0115278,24.6722465 38.0115278,24.6722465 37.9914583,24.6722465 C37.20875,24.833068 36.48625,25.0541977 35.8239583,25.3557381 C35.76375,25.3758408 35.7236111,25.3959435 35.6634028,25.4160462 C35.4426389,25.5165597 35.221875,25.6170732 35.0211806,25.7376893 C33.9775694,26.3005648 33.0744444,27.0443646 32.4723611,27.9087805 L1.42493056,71.6924519 C-1.54534722,75.8939153 2.76958333,80.8190757 9.43263889,80.8190757 C12.824375,80.8190757 15.9150694,79.4721951 17.4403472,77.3413094 L35.5429861,51.8309884 L39.8980556,75.1099101 C40.0786806,76.0547368 40.5402778,76.9191528 41.1825,77.6830552 C42.6877083,79.5526059 45.4974306,80.8793838 48.949375,80.8793838 C52.3411111,80.8793838 55.4318056,79.5325032 56.9570833,77.4016175 L75.2002083,51.6701669 L79.5954167,75.1099101 C79.7158333,75.7934018 80.016875,76.4567908 80.3981944,77.0598716 C81.7428472,79.2309628 84.7934028,80.8391784 88.5865278,80.8391784 C91.9782639,80.8391784 95.0689583,79.4922978 96.5942361,77.3614121 L117.647083,47.6898331 C120.597292,43.4481643 116.282361,38.5230039 109.619306,38.5230039 Z" id="Path"></path>
                        <ellipse id="Oval" cx="41.4835417" cy="10.097792" rx="9.65340278" ry="9.66939666"></ellipse>
                        <ellipse id="Oval" cx="81.7829861" cy="10.097792" rx="9.65340278" ry="9.66939666"></ellipse>
                    </g>
                </g>
            </g>
        </g>
    </g>
</svg>